<?xml version="1.0" encoding="UTF-8" standalone="no"?>
<!DOCTYPE svg PUBLIC "-//W3C//DTD SVG 1.1//EN" "http://www.w3.org/Graphics/SVG/1.1/DTD/svg11.dtd">
<svg width="100%" height="100%" viewBox="0 0 32 32" version="1.1" xmlns="http://www.w3.org/2000/svg" xmlns:xlink="http://www.w3.org/1999/xlink" xml:space="preserve" xmlns:serif="http://www.serif.com/" style="fill-rule:evenodd;clip-rule:evenodd;">
    <g transform="matrix(1.01382,0,0,1.14191,-1.46581,-2.32419)">
        <path d="M4.029,5.147C4.029,5.147 10.956,5.023 11.157,5.153C11.409,5.316 12.257,8 12.257,8L16,8L16,27L6,27C4.903,27 4,26.097 4,25L4,13L4.029,5.147Z" style="fill:none;fill-rule:nonzero;stroke:rgb(136,136,136);stroke-width:1.5px;"/>
    </g>
    <g transform="matrix(1.16441,0,0,1.14276,-3.87526,-2.347)">
        <path d="M28,8.241L28,26.759C28,26.892 27.894,27 27.763,27L16.237,27C16.106,27 16,26.892 16,26.759L16,8.241C16,8.108 16.106,8 16.237,8L27.763,8C27.894,8 28,8.108 28,8.241Z" style="fill:none;stroke:rgb(136,136,136);stroke-width:1.5px;"/>
    </g>
    <g transform="matrix(1,0,0,1.0092,0.228162,2.86017)">
        <circle cx="20" cy="12" r="1.1" style="fill:none;stroke:rgb(136,136,136);stroke-width:1px;"/>
    </g>
    <g transform="matrix(1,0,0,1.0092,0.228162,2.86017)">
        <circle cx="24" cy="12" r="1.1" style="fill:none;stroke:rgb(136,136,136);stroke-width:1px;"/>
    </g>
    <g transform="matrix(1,0,0,1,0.228162,0.00742688)">
        <circle cx="20" cy="23" r="1.1" style="fill:none;stroke:rgb(136,136,136);stroke-width:1px;"/>
    </g>
    <g transform="matrix(1,0,0,1,0.228162,0.00742688)">
        <circle cx="24" cy="23" r="1.1" style="fill:none;stroke:rgb(136,136,136);stroke-width:1px;"/>
    </g>
    <g transform="matrix(1,0,0,1.0092,0.228162,2.86017)">
        <path d="M20,13L20,16L24,16L24,13" style="fill:none;fill-rule:nonzero;stroke:rgb(136,136,136);stroke-width:0.8px;"/>
    </g>
    <g transform="matrix(1,0,0,1,0.228162,0.00742688)">
        <path d="M20,22L20,19L24,19L24,22" style="fill:none;fill-rule:nonzero;stroke:rgb(136,136,136);stroke-width:0.8px;"/>
    </g>
</svg>
